<svg width="256" height="256" viewBox="0 0 256 256" fill="none" xmlns="http://www.w3.org/2000/svg">
  <rect width="256" height="256" rx="56" fill="#163B39"/>
  <path d="M52 176V80H92C106.667 80 118 83.2 126 89.6C134 96 138 105.2 138 117.2C138 129.2 134 138.533 126 145.2C118.133 151.733 106.8 155 92 155H78V176H52ZM78 133H90.4C97.7333 133 103.333 131.667 107.2 129C111.067 126.333 113 122.267 113 116.8C113 111.2 111.067 107 107.2 104.2C103.467 101.267 97.8667 99.8 90.4 99.8H78V133Z" fill="#F5ECDD"/>
  <path d="M154 176V80H180V176H154ZM178 99.4V80H222V99.4H178Z" fill="#C86B35"/>
  <title>CEN IMTREKS</title>
</svg>
