<svg xmlns="http://www.w3.org/2000/svg" viewBox="0 0 128 128" role="img" aria-labelledby="title desc">
  <title id="title">SME</title>
  <desc id="desc">Document icon for SME with a customs correction seal.</desc>
  <defs>
    <linearGradient id="sme-bg" x1="18" y1="14" x2="108" y2="116" gradientUnits="userSpaceOnUse">
      <stop offset="0" stop-color="#241712" />
      <stop offset="0.58" stop-color="#4a2514" />
      <stop offset="1" stop-color="#8b451d" />
    </linearGradient>
    <linearGradient id="sme-paper" x1="36" y1="28" x2="92" y2="104" gradientUnits="userSpaceOnUse">
      <stop offset="0" stop-color="#fffaf1" />
      <stop offset="1" stop-color="#ead8bc" />
    </linearGradient>
    <linearGradient id="sme-fold" x1="70" y1="26" x2="88" y2="46" gradientUnits="userSpaceOnUse">
      <stop offset="0" stop-color="#f6e7cd" />
      <stop offset="1" stop-color="#ddc6a0" />
    </linearGradient>
    <linearGradient id="sme-seal" x1="71" y1="67" x2="102" y2="103" gradientUnits="userSpaceOnUse">
      <stop offset="0" stop-color="#ffb05d" />
      <stop offset="0.55" stop-color="#d86d22" />
      <stop offset="1" stop-color="#a74212" />
    </linearGradient>
    <filter id="sme-shadow" x="-20%" y="-20%" width="140%" height="140%">
      <feDropShadow dx="0" dy="6" stdDeviation="8" flood-color="#190d08" flood-opacity="0.24" />
    </filter>
  </defs>

  <rect width="128" height="128" rx="30" fill="url(#sme-bg)" />
  <circle cx="27" cy="28" r="18" fill="#f3c18a" opacity="0.12" />
  <circle cx="108" cy="102" r="24" fill="#f7d0a0" opacity="0.1" />

  <g filter="url(#sme-shadow)">
    <path
      d="M34 22h33l22 22v49c0 7.18-5.82 13-13 13H34c-7.18 0-13-5.82-13-13V35c0-7.18 5.82-13 13-13Z"
      fill="url(#sme-paper)"
    />
    <path d="M67 22v16c0 4.42 3.58 8 8 8h14" fill="url(#sme-fold)" />
  </g>

  <path d="M40 49h24" stroke="#1e4766" stroke-width="8" stroke-linecap="round" />
  <path d="M40 64h35" stroke="#b12b20" stroke-width="8" stroke-linecap="round" />
  <path d="M40 79h22" stroke="#7a6752" stroke-width="7" stroke-linecap="round" opacity="0.92" />

  <path d="M84 67 99 75.5V92.5L84 101 69 92.5V75.5L84 67Z" fill="url(#sme-seal)" />
  <path d="M84 67v34" stroke="#f8d7ac" stroke-width="2.5" stroke-linecap="round" opacity="0.5" />
  <path d="M69 75.5 84 84 99 75.5" stroke="#f8d7ac" stroke-width="2.5" stroke-linecap="round" stroke-linejoin="round" opacity="0.5" />
  <path d="M76 84.5 82 90.5 93 79" fill="none" stroke="#fff8ef" stroke-width="5.5" stroke-linecap="round" stroke-linejoin="round" />

  <path d="M24 91c8.24 0 15.88 3.2 21.65 8.74" fill="none" stroke="#f8d7ac" stroke-width="4" stroke-linecap="round" opacity="0.46" />
</svg>
