<svg xmlns="http://www.w3.org/2000/svg" viewBox="0 0 128 128" role="img" aria-labelledby="title desc">
  <title id="title">WCT CEN</title>
  <desc id="desc">Container lookup icon for WCT CEN with a structured customs register card.</desc>
  <defs>
    <linearGradient id="wc-bg" x1="16" y1="14" x2="108" y2="114" gradientUnits="userSpaceOnUse">
      <stop offset="0" stop-color="#133531" />
      <stop offset="0.56" stop-color="#1e5a53" />
      <stop offset="1" stop-color="#2d7b70" />
    </linearGradient>
    <linearGradient id="wc-card" x1="24" y1="30" x2="86" y2="90" gradientUnits="userSpaceOnUse">
      <stop offset="0" stop-color="#fffaf1" />
      <stop offset="1" stop-color="#eadfc9" />
    </linearGradient>
    <linearGradient id="wc-chip" x1="70" y1="70" x2="104" y2="103" gradientUnits="userSpaceOnUse">
      <stop offset="0" stop-color="#f0a459" />
      <stop offset="0.58" stop-color="#d57a20" />
      <stop offset="1" stop-color="#9d4d1c" />
    </linearGradient>
    <filter id="wc-shadow" x="-20%" y="-20%" width="140%" height="140%">
      <feDropShadow dx="0" dy="6" stdDeviation="8" flood-color="#0b211f" flood-opacity="0.24" />
    </filter>
  </defs>

  <rect width="128" height="128" rx="30" fill="url(#wc-bg)" />
  <circle cx="29" cy="27" r="16" fill="#f2d4a6" opacity="0.1" />
  <circle cx="106" cy="102" r="22" fill="#f2d4a6" opacity="0.08" />

  <g filter="url(#wc-shadow)">
    <rect x="23" y="30" width="60" height="54" rx="15" fill="url(#wc-card)" />
    <path d="M36 42h34" stroke="#1c5750" stroke-width="6.5" stroke-linecap="round" />
    <path d="M36 54h34" stroke="#1c5750" stroke-width="6.5" stroke-linecap="round" opacity="0.78" />
    <path d="M36 66h18" stroke="#d07a2f" stroke-width="6.5" stroke-linecap="round" />
    <path d="M49 36v42" stroke="#d9ccb6" stroke-width="2.4" opacity="0.82" />
    <path d="M64 36v42" stroke="#d9ccb6" stroke-width="2.4" opacity="0.82" />
  </g>

  <g filter="url(#wc-shadow)">
    <rect x="69" y="70" width="33" height="28" rx="10" fill="url(#wc-chip)" />
    <path d="M75 79h21" stroke="#fff4e6" stroke-width="3.2" stroke-linecap="round" opacity="0.92" />
    <path d="M75 88h21" stroke="#fff4e6" stroke-width="3.2" stroke-linecap="round" opacity="0.82" />
    <path d="M82 75v18" stroke="#fff4e6" stroke-width="2.2" opacity="0.58" />
    <path d="M90 75v18" stroke="#fff4e6" stroke-width="2.2" opacity="0.58" />
  </g>

  <circle cx="92" cy="58" r="9" fill="#f6ecde" />
  <path d="M92 54v8" stroke="#1c5750" stroke-width="4" stroke-linecap="round" />
  <path d="M88 58h8" stroke="#1c5750" stroke-width="4" stroke-linecap="round" />
  <path d="M80 18c4.63 1.13 8.94 3.38 12.55 6.53" fill="none" stroke="#f2d4a6" stroke-width="4" stroke-linecap="round" opacity="0.44" />
</svg>
